<svg version="1.2" baseProfile="tiny-ps" xmlns="http://www.w3.org/2000/svg" viewBox="0 0 20 26" width="20" height="26">
	<title>Footer</title>
	<style>
		tspan { white-space:pre }
		.shp0 { fill: #ffffff } 
	</style>
	<g id="Footer">
		<g id="Footer">
			<g id="Follow Us">
				<path id="Pinterest" class="shp0" d="M10.33 0.66C3.6 0.66 0.02 4.97 0.02 9.68C0.02 11.86 1.24 14.58 3.19 15.44C3.48 15.58 3.65 15.52 3.71 15.25C3.77 15.04 4.03 14.03 4.15 13.56C4.19 13.4 4.17 13.27 4.05 13.13C3.4 12.38 2.88 11.01 2.88 9.73C2.88 6.45 5.49 3.26 9.93 3.26C13.77 3.26 16.46 5.76 16.46 9.33C16.46 13.36 14.33 16.15 11.56 16.15C10.02 16.15 8.88 14.94 9.24 13.45C9.68 11.68 10.54 9.77 10.54 8.49C10.54 7.34 9.89 6.4 8.56 6.4C7 6.4 5.73 7.94 5.73 10.02C5.73 11.34 6.2 12.23 6.2 12.23C6.2 12.23 4.66 18.47 4.37 19.64C3.88 21.61 4.44 24.8 4.48 25.08C4.51 25.23 4.68 25.28 4.78 25.16C4.93 24.96 6.8 22.29 7.32 20.37C7.51 19.66 8.29 16.82 8.29 16.82C8.81 17.75 10.29 18.53 11.88 18.53C16.58 18.53 19.98 14.39 19.98 9.26C19.97 4.34 15.76 0.66 10.33 0.66Z" />
			</g>
		</g>
	</g>
</svg>